<svg width="46" height="50" viewBox="0 0 46 50" fill="none" xmlns="http://www.w3.org/2000/svg">
<g clip-path="url(#clip0)">
<path d="M3.49628 50H42.9587C44.4421 50 45.6493 48.9484 45.6493 47.6562V2.34375C45.6493 1.05156 44.4421 0 42.9587 0H3.49628C2.01286 0 0.805664 1.05156 0.805664 2.34375V47.6562C0.805664 48.9484 2.01286 50 3.49628 50ZM2.59941 2.34375C2.59941 2.13655 2.6939 1.93784 2.8621 1.79132C3.03029 1.64481 3.25842 1.5625 3.49628 1.5625H42.9587C43.1966 1.5625 43.4247 1.64481 43.5929 1.79132C43.7611 1.93784 43.8556 2.13655 43.8556 2.34375V47.6562C43.8556 47.8634 43.7611 48.0622 43.5929 48.2087C43.4247 48.3552 43.1966 48.4375 42.9587 48.4375H3.49628C3.25842 48.4375 3.03029 48.3552 2.8621 48.2087C2.6939 48.0622 2.59941 47.8634 2.59941 47.6562V2.34375Z" fill="#828282"/>
<path d="M7.08389 42.1875H39.3713C39.6092 42.1875 39.8373 42.1052 40.0055 41.9587C40.1737 41.8122 40.2682 41.6134 40.2682 41.4062V5.46875C40.2682 5.26155 40.1737 5.06284 40.0055 4.91632C39.8373 4.76981 39.6092 4.6875 39.3713 4.6875H7.08389C6.84602 4.6875 6.6179 4.76981 6.4497 4.91632C6.2815 5.06284 6.18701 5.26155 6.18701 5.46875V41.4062C6.18701 41.6134 6.2815 41.8122 6.4497 41.9587C6.6179 42.1052 6.84602 42.1875 7.08389 42.1875ZM7.98076 6.25H38.4744V40.625H7.98076V6.25Z" fill="#828282"/>
<path d="M24.1243 46.875C25.115 46.875 25.9181 46.1754 25.9181 45.3125C25.9181 44.4496 25.115 43.75 24.1243 43.75C23.1337 43.75 22.3306 44.4496 22.3306 45.3125C22.3306 46.1754 23.1337 46.875 24.1243 46.875Z" fill="#828282"/>
</g>
<defs>
<clipPath id="clip0">
<rect width="44.8437" height="50" fill="white" transform="translate(0.805664)"/>
</clipPath>
</defs>
</svg>
