<svg width="69" height="50" viewBox="0 0 69 50" fill="none" xmlns="http://www.w3.org/2000/svg">
<g clip-path="url(#clip0)">
<path d="M36.1596 0.645163C35.1192 -0.18765 33.399 -0.18765 32.3586 0.645163L0.630864 17.3186C0.498622 17.3882 0.389202 17.4863 0.313165 17.6034C0.237128 17.7205 0.197042 17.8528 0.196777 17.9873V47.553C0.196777 48.9014 1.46316 49.9998 3.02013 49.9998H65.4963C67.0533 49.9998 68.3196 48.9014 68.3196 47.553V17.9873C68.3194 17.8528 68.2793 17.7205 68.2033 17.6034C68.1272 17.4863 68.0178 17.3882 67.8856 17.3186L36.1596 0.645163ZM33.3685 1.93735C33.4302 1.90461 33.4874 1.86581 33.5389 1.82173C33.6332 1.73947 33.7452 1.67422 33.8685 1.6297C33.9917 1.58518 34.1239 1.56226 34.2573 1.56226C34.3908 1.56226 34.5229 1.58518 34.6462 1.6297C34.7694 1.67422 34.8814 1.73947 34.9757 1.82173C35.0276 1.86545 35.0847 1.90422 35.1461 1.93735L66.047 18.178L43.6646 29.7967C43.4744 29.9085 43.3404 30.0794 43.2902 30.2744C43.24 30.4694 43.2773 30.6738 43.3945 30.8456C43.5117 31.0174 43.6999 31.1437 43.9206 31.1985C44.1412 31.2533 44.3776 31.2326 44.5812 31.1405L66.5456 19.7498V47.4952L36.1686 29.892C35.2035 29.2217 33.3093 29.2217 32.4089 29.853L1.97079 47.4873V19.7498L23.9334 31.1405C24.138 31.2466 24.3825 31.2775 24.6133 31.2265C24.8441 31.1755 25.0421 31.0468 25.1639 30.8686C25.2857 30.6904 25.3212 30.4774 25.2627 30.2764C25.2042 30.0753 25.0564 29.9028 24.8518 29.7967L2.46766 18.178L33.3685 1.93735ZM64.9133 48.4373H3.58875L33.4654 31.1155C33.7757 30.8998 34.7425 30.9014 35.1138 31.1545L64.9133 48.4373Z" fill="#828282"/>
<path d="M11.8363 20.3125H56.68C56.9178 20.3125 57.146 20.2302 57.3142 20.0837C57.4824 19.9372 57.5768 19.7385 57.5768 19.5312C57.5768 19.324 57.4824 19.1253 57.3142 18.9788C57.146 18.8323 56.9178 18.75 56.68 18.75H11.8363C11.5985 18.75 11.3703 18.8323 11.2021 18.9788C11.0339 19.1253 10.9395 19.324 10.9395 19.5312C10.9395 19.7385 11.0339 19.9372 11.2021 20.0837C11.3703 20.2302 11.5985 20.3125 11.8363 20.3125Z" fill="#828282"/>
</g>
<defs>
<clipPath id="clip0">
<rect width="68.1623" height="50" fill="white" transform="translate(0.177246)"/>
</clipPath>
</defs>
</svg>
