<svg width="74" height="59" viewBox="0 0 74 59" fill="none" xmlns="http://www.w3.org/2000/svg">
<path d="M35.3675 0.405522L1.10471 22.3047C0.809723 22.4933 0.560443 22.7394 0.373508 23.0267C0.186573 23.3141 0.0662828 23.636 0.0206659 23.971C-0.0249511 24.306 0.00515404 24.6465 0.108972 24.9695C0.212791 25.2926 0.387934 25.591 0.622715 25.8446L3.44935 28.9032C3.84994 29.3356 4.4022 29.6148 5.00334 29.6891C5.60449 29.7634 6.21354 29.6275 6.71714 29.3069L35.3675 11.0097C35.7794 10.747 36.2643 10.6068 36.7604 10.6068C37.2565 10.6068 37.7413 10.747 38.1533 11.0097L66.8118 29.2991C67.3154 29.6198 67.9245 29.7556 68.5256 29.6813C69.1267 29.6071 69.679 29.3278 70.0796 28.8955L72.9062 25.8369C73.141 25.5832 73.3162 25.2849 73.42 24.9618C73.5238 24.6387 73.5539 24.2983 73.5083 23.9633C73.4627 23.6282 73.3424 23.3063 73.1554 23.019C72.9685 22.7316 72.7192 22.4855 72.4242 22.297L38.1615 0.405522C37.7487 0.141204 37.2622 0 36.7645 0C36.2667 0 35.7803 0.141204 35.3675 0.405522Z" fill="#FF7A22"/>
<path d="M62.0257 30.0908L38.1627 14.7513C37.7491 14.4853 37.2611 14.3431 36.7616 14.3431C36.2622 14.3431 35.7742 14.4853 35.3606 14.7513L11.5057 30.0908C11.167 30.3077 10.8894 30.6001 10.6972 30.9425C10.5049 31.2849 10.4038 31.6668 10.4028 32.0549V56.6323C10.4039 56.9442 10.4696 57.2529 10.5962 57.5407C10.7229 57.8286 10.9079 58.0899 11.1408 58.3097C11.3737 58.5296 11.6499 58.7037 11.9536 58.8221C12.2573 58.9406 12.5826 59.001 12.9109 59H19.8467V39.9963C19.8467 39.7101 19.9664 39.4357 20.1793 39.2333C20.3923 39.031 20.6811 38.9173 20.9823 38.9173H29.1518C29.4529 38.9173 29.7418 39.031 29.9547 39.2333C30.1677 39.4357 30.2873 39.7101 30.2873 39.9963V59H60.6206C61.2836 59 61.9194 58.7497 62.3882 58.3042C62.8571 57.8587 63.1204 57.2545 63.1204 56.6245V32.0549C63.1203 31.6675 63.0205 31.286 62.8297 30.9437C62.6389 30.6014 62.3629 30.3086 62.0257 30.0908ZM54.2239 46.0436C54.2239 46.2495 54.1378 46.447 53.9846 46.5926C53.8314 46.7382 53.6236 46.8199 53.4069 46.8199H44.5757C44.3591 46.8199 44.1513 46.7382 43.9981 46.5926C43.8449 46.447 43.7588 46.2495 43.7588 46.0436V38.8707C43.7588 38.6648 43.8449 38.4674 43.9981 38.3218C44.1513 38.1762 44.3591 38.0944 44.5757 38.0944H53.4151C53.6318 38.0944 53.8396 38.1762 53.9928 38.3218C54.146 38.4674 54.232 38.6648 54.232 38.8707L54.2239 46.0436Z" fill="#319CFF"/>
</svg>
