<svg width="41" height="40" viewBox="0 0 41 40" fill="none" xmlns="http://www.w3.org/2000/svg">
<path d="M8.95264 8.33333H30.6193C31.9454 8.33333 33.2172 8.86011 34.1548 9.79779C35.0925 10.7355 35.6193 12.0072 35.6193 13.3333V28.3333C35.6193 29.6594 35.0925 30.9312 34.1548 31.8689C33.2172 32.8065 31.9454 33.3333 30.6193 33.3333H8.95264C7.62655 33.3333 6.35478 32.8065 5.4171 31.8689C4.47942 30.9312 3.95264 29.6594 3.95264 28.3333V13.3333C3.95264 12.0072 4.47942 10.7355 5.4171 9.79779C6.35478 8.86011 7.62655 8.33333 8.95264 8.33333ZM8.95264 9.99999C8.1393 9.99999 7.39264 10.2917 6.8143 10.7767L19.786 19.2L32.7576 10.7767C32.1586 10.274 31.4013 9.99897 30.6193 9.99999H8.95264ZM19.786 21.1867L5.84264 12.1333C5.69478 12.5161 5.61906 12.923 5.6193 13.3333V28.3333C5.6193 29.2174 5.97049 30.0652 6.59561 30.6903C7.22074 31.3155 8.06858 31.6667 8.95264 31.6667H30.6193C31.5034 31.6667 32.3512 31.3155 32.9763 30.6903C33.6014 30.0652 33.9526 29.2174 33.9526 28.3333V13.3333C33.9526 12.91 33.8743 12.505 33.7293 12.1333L19.786 21.185V21.1867Z" fill="#828282"/>
</svg>
