<svg width="75" height="50" viewBox="0 0 75 50" fill="none" xmlns="http://www.w3.org/2000/svg">
<g clip-path="url(#clip0)">
<path d="M17.4541 49.886C17.4702 49.8954 17.4917 49.8907 17.5079 49.9001C17.6349 49.9616 17.7769 49.9959 17.9222 50.0001C18.0022 50 18.0819 49.9905 18.159 49.972L37.6534 45.3376L57.1479 49.972C57.225 49.9905 57.3046 50 57.3846 50.0001C57.5296 49.9963 57.6713 49.9614 57.7972 49.8985C57.8151 49.8907 57.8349 49.8939 57.851 49.8845L73.9947 41.2907C74.1615 41.2015 74.2903 41.0673 74.3615 40.9086C74.4327 40.7498 74.4425 40.5751 74.3893 40.4111L65.4493 13.0673C65.4127 12.9534 65.3469 12.8483 65.2568 12.7598C65.1667 12.6714 65.0546 12.602 64.9292 12.5568C64.8037 12.5116 64.6681 12.4919 64.5326 12.4992C64.3971 12.5064 64.2652 12.5404 64.147 12.5986L55.2465 16.9486C55.0516 17.0558 54.9114 17.2241 54.8549 17.4188C54.7985 17.6135 54.8301 17.8196 54.9432 17.9946C55.0563 18.1695 55.2422 18.3 55.4626 18.3589C55.683 18.4178 55.9209 18.4007 56.1272 18.3111L64.0358 14.4439L72.479 40.2657L58.1021 47.9204L54.6868 24.122C54.6573 23.9162 54.5352 23.7291 54.3473 23.6018C54.1595 23.4745 53.9212 23.4174 53.685 23.4431C53.4488 23.4688 53.234 23.5752 53.0879 23.7388C52.9417 23.9025 52.8762 24.11 52.9056 24.3157L56.3263 48.1579L38.5503 43.9314V39.6657C38.5503 39.4585 38.4558 39.2598 38.2876 39.1133C38.1194 38.9668 37.8913 38.8845 37.6534 38.8845C37.4156 38.8845 37.1874 38.9668 37.0192 39.1133C36.851 39.2598 36.7566 39.4585 36.7566 39.6657V43.9314L18.9787 48.1579L22.3994 24.3157C22.414 24.2139 22.4054 24.1105 22.3742 24.0115C22.3429 23.9125 22.2896 23.8198 22.2172 23.7388C22.1448 23.6578 22.0548 23.59 21.9524 23.5392C21.8499 23.4885 21.737 23.4558 21.62 23.4431C21.5031 23.4304 21.3844 23.4378 21.2707 23.4651C21.1571 23.4923 21.0507 23.5388 20.9577 23.6018C20.8647 23.6649 20.7868 23.7432 20.7286 23.8325C20.6703 23.9217 20.6328 24.0201 20.6182 24.122L17.2047 47.9204L2.82785 40.2673L11.271 14.447L19.1796 18.3142C19.3859 18.4038 19.6239 18.4209 19.8442 18.362C20.0646 18.3031 20.2506 18.1727 20.3637 17.9977C20.4768 17.8227 20.5084 17.6166 20.4519 17.4219C20.3955 17.2272 20.2553 17.0589 20.0604 16.9517L11.158 12.6001C11.0401 12.5413 10.9083 12.5068 10.7727 12.4993C10.6371 12.4917 10.5013 12.5113 10.3757 12.5566C10.2502 12.6018 10.1382 12.6715 10.0484 12.7603C9.95855 12.8491 9.89327 12.9547 9.85754 13.0689L0.917507 40.4126C0.863435 40.5766 0.872772 40.7516 0.94408 40.9106C1.01539 41.0695 1.14471 41.2037 1.31213 41.2923L17.4541 49.886Z" fill="#828282"/>
<path d="M37.0455 36.5125C37.2102 36.6449 37.4258 36.7188 37.6498 36.7197C37.8739 36.7205 38.0903 36.6483 38.2563 36.5172C38.8536 36.0438 52.9004 24.8156 52.9004 13.2812C52.9004 5.83281 46.2044 0 37.6536 0C29.1028 0 22.4067 5.83281 22.4067 13.2812C22.4067 24.6156 36.4482 36.0312 37.0455 36.5125ZM37.6536 1.5625C45.3218 1.5625 51.1067 6.6 51.1067 13.2812C51.1067 22.8078 40.3568 32.5578 37.659 34.8547C34.9665 32.5312 24.2005 22.6531 24.2005 13.2812C24.2005 6.6 29.9853 1.5625 37.6536 1.5625Z" fill="#828282"/>
<path d="M45.7253 13.2812C45.7253 9.40469 42.1037 6.25 37.6534 6.25C33.2031 6.25 29.5815 9.40469 29.5815 13.2812C29.5815 17.1578 33.2031 20.3125 37.6534 20.3125C42.1037 20.3125 45.7253 17.1578 45.7253 13.2812ZM37.6534 18.75C34.1915 18.75 31.3753 16.2969 31.3753 13.2812C31.3753 10.2656 34.1915 7.8125 37.6534 7.8125C41.1153 7.8125 43.9315 10.2656 43.9315 13.2812C43.9315 16.2969 41.1153 18.75 37.6534 18.75Z" fill="#828282"/>
</g>
<defs>
<clipPath id="clip0">
<rect width="73.5436" height="50" fill="white" transform="translate(0.881836)"/>
</clipPath>
</defs>
</svg>
