<svg width="41" height="40" viewBox="0 0 41 40" fill="none" xmlns="http://www.w3.org/2000/svg">
<path d="M8.95264 5H30.6193C31.9454 5 33.2172 5.52678 34.1548 6.46447C35.0925 7.40215 35.6193 8.67392 35.6193 10V25C35.6193 26.3261 35.0925 27.5979 34.1548 28.5355C33.2172 29.4732 31.9454 30 30.6193 30H22.976L16.7976 36.1783C16.5646 36.4114 16.2676 36.57 15.9444 36.6343C15.6211 36.6986 15.286 36.6656 14.9815 36.5395C14.677 36.4133 14.4168 36.1998 14.2336 35.9258C14.0505 35.6517 13.9527 35.3296 13.9526 35V30H8.95264C7.62655 30 6.35478 29.4732 5.4171 28.5355C4.47942 27.5979 3.95264 26.3261 3.95264 25V10C3.95264 8.67392 4.47942 7.40215 5.4171 6.46447C6.35478 5.52678 7.62655 5 8.95264 5ZM30.6193 6.66667H8.95264C8.06858 6.66667 7.22074 7.01786 6.59561 7.64298C5.97049 8.2681 5.6193 9.11594 5.6193 10V25C5.6193 25.8841 5.97049 26.7319 6.59561 27.357C7.22074 27.9821 8.06858 28.3333 8.95264 28.3333H15.6193V35L22.286 28.3333H30.6193C31.5034 28.3333 32.3512 27.9821 32.9763 27.357C33.6014 26.7319 33.9526 25.8841 33.9526 25V10C33.9526 9.11594 33.6014 8.2681 32.9763 7.64298C32.3512 7.01786 31.5034 6.66667 30.6193 6.66667ZM8.95264 11.6667H30.6193V13.3333H8.95264V11.6667ZM8.95264 16.6667H28.9526V18.3333H8.95264V16.6667ZM8.95264 21.6667H22.286V23.3333H8.95264V21.6667Z" fill="#828282"/>
</svg>
